HIERARCHY
ROOT pelvis
{
  OFFSET 0 100 0
  CHANNELS 6 Xposition Yposition Zposition Zrotation Xrotation Yrotation
  JOINT pelvis_right_femur
  {
    OFFSET -10.78128 -3.44521 -0.5502486
    CHANNELS 3 Zrotation Xrotation Yrotation
    JOINT right_femur_tibia
    {
      OFFSET -0.8047443 -44.0398 -0.1307829
      CHANNELS 3 Zrotation Xrotation Yrotation
      JOINT right_tibia_foot
      {
        OFFSET 3.006224 -47.83518 -5
        CHANNELS 3 Zrotation Xrotation Yrotation
        End Site
        {
          OFFSET 0 -5 15
        }
      }
    }
  }
  JOINT pelvis_left_femur
  {
    OFFSET 10.78128 -3.44521 -0.5502486
    CHANNELS 3 Zrotation Xrotation Yrotation
    JOINT left_femur_tibia
    {
      OFFSET 0.8047443 -44.0398 -0.1307829
      CHANNELS 3 Zrotation Xrotation Yrotation
      JOINT left_tibia_foot
      {
        OFFSET -4.370144 -48.10324 -4.275266
        CHANNELS 3 Zrotation Xrotation Yrotation
        End Site
        {
          OFFSET 0 -5 15
        }
      }
    }
  }
  JOINT pelvis_spine1
  {
    OFFSET 0 6.468898 -3.129235
    CHANNELS 3 Zrotation Xrotation Yrotation
    JOINT spine1
    {
      OFFSET 0 23.15396 4.99043
      CHANNELS 3 Zrotation Xrotation Yrotation
      JOINT spine2
      {
        OFFSET 0 20.79997 -5.064912
        CHANNELS 3 Zrotation Xrotation Yrotation
        JOINT neck
        {
          OFFSET 0 14.38658 9.616178
          CHANNELS 3 Zrotation Xrotation Yrotation
          End Site
          {
            OFFSET 0 20 0
          }
        }
      }
      JOINT right_manubrium
      {
        OFFSET -5.722621 16.35077 3.967754
        CHANNELS 3 Zrotation Xrotation Yrotation
        JOINT right_clavicle
        {
          OFFSET -13.16364 1.694482 -4.693211
          CHANNELS 3 Zrotation Xrotation Yrotation
          JOINT right_humerus
          {
            OFFSET -28.5034 -0.3100689 -2.792744
            CHANNELS 3 Zrotation Xrotation Yrotation
            JOINT right_radius
            {
              OFFSET -25.15693 0.02248979 -1.271978
              CHANNELS 3 Zrotation Xrotation Yrotation
              End Site
              {
                OFFSET -15 0 0
              }
            }
          }
        }
      }
      JOINT left_manubrium
      {
        OFFSET 5.722621 16.35077 3.967754
        CHANNELS 3 Zrotation Xrotation Yrotation
        JOINT left_clavicle
        {
          OFFSET 13.16364 1.694482 -4.693211
          CHANNELS 3 Zrotation Xrotation Yrotation
          JOINT left_humerus
          {
            OFFSET 29.39168 -1.063119 -2.237045
            CHANNELS 3 Zrotation Xrotation Yrotation
            JOINT left_radius
            {
              OFFSET 24.59957 -0.9528479 0.9047498
              CHANNELS 3 Zrotation Xrotation Yrotation
              End Site
              {
                OFFSET 15 -0 -0
              }
            }
          }
        }
      }
    }
  }
}
MOTION
Frames: 15
Frame Time: 0.0416666666667
334.3136 104.4693 3089.51 2.669775 -6.599408 4.717989 -0.8617138 14.86355 2.289973 -0 44.35863 -0 -4.376379 5.59892 -1.188734 -5.494681 -13.66963 -9.280699 -0 19.38738 -0 -1.880832 -9.955569 20.39066 0.2040779 -2.852475 7.631812 -0.2307279 12.70015 -4.176658 1.020725 18.86449 3.948061 -0.2755343 -20.67608 5.878354 0.8639575 -27.1639 12.06686 80.40734 24.19718 -1.461654 -0 0 26.04244 -24.52425 15.06262 19.83907 1.532228 -18.71249 -4.323304 -89.86617 14.14568 32.79099 0 0 -15.12092 3.219789 10.5598 13.44858
335.7768 105.8766 3095.768 2.766039 -7.012792 5.688393 -0.5840408 9.135345 2.406309 -0 50.39787 -0 -3.953404 8.52025 -2.199085 -5.950762 -9.304619 -9.402096 -0 19.33147 -0 -1.461293 -11.20895 19.69669 0.1688909 -2.85727 7.646553 -0.2264087 12.67693 -4.176748 1.01266 18.88931 3.930856 -0.2748236 -20.67924 5.862548 0.816356 -27.20937 12.04922 80.43175 24.19699 -1.464802 -0 0 26.0948 -24.56237 15.03782 19.85484 1.530311 -18.68044 -4.304848 -89.94124 14.2059 32.87139 0 0 -14.99462 3.175834 10.53833 13.42837
337.1787 107.145 3101.594 2.559346 -7.43111 6.802743 -0.05231053 2.329135 2.195647 -0 52.02451 -0 -3.600172 8.812028 -3.259291 -5.879443 -4.717432 -9.176885 -0 17.74386 -0 -1.316402 -12.61811 18.89625 0.1375291 -2.861155 7.660601 -0.2230197 12.65684 -4.177687 1.004999 18.91152 3.914232 -0.2747669 -20.68159 5.847385 0.7712356 -27.25229 12.03315 80.45845 24.19839 -1.471506 -0 0 26.14319 -24.59531 15.01528 19.86785 1.527754 -18.65197 -4.288665 -90.00865 14.25973 32.94705 0 0 -14.88328 3.135942 10.51854 13.4106
338.5041 107.9309 3107.14 2.284241 -7.902842 7.894809 0.3067611 -4.393225 1.54059 -0 48.67258 -0 -3.592782 7.281244 -4.174461 -5.528695 -0.03857513 -8.848443 -0 15.47312 -0 -1.49871 -14.20299 17.96379 0.1122721 -2.863811 7.6733 -0.2209788 12.64146 -4.17963 0.9980777 18.92945 3.898907 -0.2756585 -20.68277 5.833546 0.7309951 -27.29052 12.01963 80.48693 24.20173 -1.482391 -0 0 26.18508 -24.62022 14.99665 19.87698 1.524533 -18.62912 -4.275936 -90.06352 14.30326 33.01397 0 0 -14.79595 3.102785 10.50167 13.39684
339.7502 108.0975 3112.597 2.135325 -8.204644 8.853726 0.2928978 -10.19903 0.5076926 -0 41.72128 -0 -3.849874 5.180888 -4.848314 -5.190579 4.443605 -8.610145 -0 13.42978 -0 -2.027484 -15.97921 16.84548 0.09504589 -2.864995 7.684047 -0.2206469 12.63197 -4.182585 0.9922081 18.94165 3.885693 -0.277667 -20.68244 5.821742 0.697991 -27.32181 12.00945 80.516 24.20747 -1.497468 -0 0 26.21802 -24.63467 14.98318 19.88139 1.520766 -18.61366 -4.26754 -90.10141 14.33319 33.0682 0 0 -14.74056 3.078763 10.48881 13.38859
340.9299 107.7104 3118.094 2.131568 -8.036963 9.646813 0.02724791 -14.89458 -0.6040771 -0 33.45605 -0 -4.062248 3.353603 -5.279497 -5.042423 8.380367 -8.526515 -0 12.06422 -0 -2.785215 -17.8462 15.63382 0.08715003 -2.864586 7.692307 -0.22224 12.62903 -4.186378 0.9876777 18.94714 3.875438 -0.2807703 -20.68046 5.812668 0.674324 -27.3441 12.00316 80.54388 24.21592 -1.516013 -0 0 26.23989 -24.63712 14.97564 19.88059 1.516714 -18.60676 -4.263968 -90.11903 14.34729 33.10618 0 0 -14.72257 3.065672 10.48075 13.38694
342.0642 106.9264 3123.685 2.177692 -7.322313 10.29329 -0.2286799 -18.6971 -1.472283 -0 25.7027 -0 -4.023972 2.078667 -5.515243 -5.09375 11.56907 -8.53951 -0 11.45686 -0 -3.521064 -19.57572 14.53231 0.08904306 -2.862608 7.697646 -0.225761 12.63263 -4.190667 0.9847315 18.94558 3.868927 -0.2847294 -20.67691 5.806941 0.6615723 -27.35574 12.00105 80.56843 24.22701 -1.536606 -0 0 26.24917 -24.62723 14.97422 19.87464 1.512742 -18.60885 -4.265281 -90.11493 14.34478 33.12527 0 0 -14.74382 3.064387 10.47789 13.39237
343.1718 105.9034 3129.398 2.18015 -6.254415 10.83293 -0.2745351 -21.84425 -1.956386 -0 19.32536 -0 -3.763039 1.370322 -5.617708 -5.250314 14.01694 -8.535321 -0 11.62232 -0 -4.016786 -20.91406 13.69659 0.1001914 -2.859232 7.699807 -0.2309731 12.64214 -4.194993 0.9835315 18.93736 3.866728 -0.2891081 -20.6721 5.804976 0.6604709 -27.35584 12.00301 80.58744 24.24029 -1.557333 -0 0 26.24522 -24.60608 14.97848 19.8641 1.509243 -18.61944 -4.271079 -90.08986 14.32658 33.12425 0 0 -14.80182 3.074626 10.48013 13.40456
344.2662 104.7736 3135.279 2.097499 -5.149261 11.30421 -0.02757787 -24.38712 -2.093602 -0 14.49444 -0 -3.445926 1.185639 -5.645132 -5.397633 15.84972 -8.411314 -0 12.65687 -0 -4.224418 -21.66192 13.15191 0.1191423 -2.85475 7.698782 -0.2374367 12.65632 -4.198879 0.9841187 18.92359 3.869065 -0.2933604 -20.66649 5.806888 0.6707325 -27.3445 12.00864 80.59916 24.25505 -1.576143 -0 0 26.22848 -24.57597 14.98738 19.85001 1.506567 -18.63725 -4.280551 -90.0467 14.2952 33.10367 0 0 -14.89018 3.094975 10.48689 13.42245
345.3561 103.6518 3141.397 1.936193 -4.299133 11.72659 0.5125401 -26.18175 -1.983608 -0 11.10991 -0 -3.244239 1.43995 -5.648637 -5.44705 17.19067 -8.114864 -0 14.73296 -0 -4.25814 -21.68612 12.83121 0.1438815 -2.849518 7.694791 -0.2445951 12.67366 -4.201935 0.9864112 18.90579 3.875772 -0.2969654 -20.66061 5.812475 0.6911748 -27.32271 12.01728 80.60249 24.27037 -1.591238 -0 0 26.20036 -24.53991 14.99962 19.83361 1.504946 -18.66042 -4.292662 -89.98976 14.25406 33.06557 0 0 -15.00008 3.123261 10.49726 13.44442
346.445 102.652 3147.825 1.731053 -3.904905 12.08925 1.309148 -26.9669 -1.696996 -0 9.056531 -0 -3.265568 1.966852 -5.674819 -5.346731 18.07581 -7.655289 -0 18.0439 -0 -4.286655 -20.90608 12.66921 0.1723205 -2.843904 7.688188 -0.251876 12.6927 -4.203924 0.9902415 18.8855 3.88635 -0.2995487 -20.65495 5.821296 0.7200882 -27.29214 12.02821 80.59718 24.28525 -1.601381 -0 0 26.16292 -24.50094 15.01397 19.81615 1.504476 -18.68703 -4.306404 -89.92373 14.20668 33.01298 0 0 -15.12229 3.157091 10.51031 13.46864
347.5281 101.8991 3154.595 1.526314 -4.060617 12.34975 2.311095 -26.46449 -1.248466 -0 8.26221 -0 -3.542337 2.514566 -5.764841 -5.078477 18.41141 -7.09664 -0 22.73248 -0 -4.419168 -19.30016 12.67914 0.2026968 -2.838231 7.679345 -0.2587736 12.71234 -4.20478 0.9954072 18.86403 3.900098 -0.3009413 -20.64988 5.832794 0.755645 -27.25475 12.04083 80.5837 24.29862 -1.606014 -0 0 26.11845 -24.4616 15.02959 19.79869 1.505114 -18.71545 -4.320997 -89.8529 14.15599 32.94919 0 0 -15.24877 3.194325 10.52524 13.4934
348.5902 101.5241 3161.665 1.360766 -4.753561 12.44379 3.445882 -24.49054 -0.6248932 -0 8.622211 -0 -4.045852 2.793183 -5.946288 -4.656165 17.9753 -6.536518 -0 28.78841 -0 -4.648013 -16.94978 12.96458 0.2337625 -2.832753 7.668584 -0.2648963 12.73189 -4.204584 1.001708 18.84225 3.916239 -0.3011705 -20.64563 5.846394 0.796177 -27.21245 12.0547 80.56309 24.30944 -1.605226 -0 0 26.06914 -24.42369 15.04614 19.782 1.506717 -18.74444 -4.335968 -89.78062 14.10399 32.87731 0 0 -15.37355 3.233322 10.54155 13.51728
349.6057 101.6343 3168.893 1.260736 -5.86692 12.30631 4.595515 -21.06562 0.1579877 -0 9.869584 -0 -4.706813 2.554331 -6.216297 -4.129244 16.47866 -6.075586 -0 35.90348 -0 -4.871507 -14.10281 13.65032 0.2647446 -2.827649 7.656172 -0.2699799 12.75107 -4.203519 1.008956 18.82072 3.934 -0.3004061 -20.64233 5.861553 0.8402433 -27.16704 12.06955 80.53675 24.31679 -1.599609 -0 0 26.01693 -24.38833 15.0636 19.76656 1.509083 -18.77323 -4.351102 -89.70932 14.05191 32.80008 0 0 -15.49265 3.272939 10.55892 13.53924
350.5448 102.2615 3176.06 1.243171 -7.192363 11.90249 5.588455 -16.48011 1.010993 -0 11.50183 -0 -5.437223 1.667324 -6.520419 -3.577801 13.6954 -5.786976 -0 43.32612 -0 -4.980626 -11.1927 14.76264 0.2951299 -2.823041 7.642385 -0.2738733 12.76977 -4.201824 1.016946 18.79975 3.952632 -0.2988922 -20.64003 5.87774 0.8864995 -27.12017 12.08513 80.50632 24.32001 -1.590091 -0 0 25.96359 -24.35612 15.08208 19.75265 1.511987 -18.80129 -4.366293 -89.64079 14.00052 32.72002 0 0 -15.60345 3.31233 10.57715 13.55851
